<svg id="Laag_1" data-name="Laag 1" xmlns="http://www.w3.org/2000/svg" xmlns:xlink="http://www.w3.org/1999/xlink" viewBox="0 0 20 24"><defs><style>.cls-1{fill:#fff;fill-rule:evenodd;}.cls-2{mask:url(#mask);}.cls-3{fill:#63a2b9;}</style><mask id="mask" x="0" y="0" width="20" height="24" maskUnits="userSpaceOnUse"><g transform="translate(0 0)"><g id="mask-2"><path id="path-1" class="cls-1" d="M0,8.47a1.08,1.08,0,0,0,.21.66l5.72,7.52a.59.59,0,0,0,1,0A1,1,0,0,0,7.14,16V12.23h2.5a19.16,19.16,0,0,1,2,.09,11.29,11.29,0,0,1,1.72.31,5.12,5.12,0,0,1,1.48.63,4.89,4.89,0,0,1,1.18,1,5.18,5.18,0,0,1,.9,1.48,9.86,9.86,0,0,1,.54,2,16.37,16.37,0,0,1,.19,2.66c0,.54,0,1.14-.05,1.81,0,.05,0,.17,0,.34a3.61,3.61,0,0,0,0,.39.7.7,0,0,0,.09.37.31.31,0,0,0,.27.14c.12,0,.22-.08.31-.25a1.39,1.39,0,0,0,.14-.32l.16-.44c.05-.17.09-.28.11-.35A22,22,0,0,0,20,15.52a17.38,17.38,0,0,0-.59-4.89Q17.6,4.7,9.64,4.7H7.14V.94A1.08,1.08,0,0,0,6.93.28a.59.59,0,0,0-1,0L.21,7.8A1.09,1.09,0,0,0,0,8.47Z"/></g></g></mask></defs><title>Answer</title><g class="cls-2"><rect class="cls-3" width="20" height="24"/></g></svg>