<svg id="Laag_1" data-name="Laag 1" xmlns="http://www.w3.org/2000/svg" viewBox="0 0 30 30"><defs><style>.cls-1{fill:#63a2b9;}.cls-2{fill:#fff;}</style></defs><title>cross</title><g id="Group"><circle id="Oval" class="cls-1" cx="15" cy="15" r="15"/><g id="Group-4"><path id="Combined-Shape" class="cls-2" d="M15.83,15.11l5.55-5.68a1,1,0,0,1,1.47,0,1.05,1.05,0,0,1,0,1.48L17.3,16.58,23,22.21a1,1,0,0,1,0,1.47,1.05,1.05,0,0,1-1.48,0l-5.64-5.61L10.3,23.74a1,1,0,1,1-1.48-1.45l5.56-5.69L8.71,11A1,1,0,1,1,10.18,9.5Z" transform="translate(-1 -1)"/></g></g></svg>