<svg id="Laag_1" data-name="Laag 1" xmlns="http://www.w3.org/2000/svg" xmlns:xlink="http://www.w3.org/1999/xlink" viewBox="0 0 32 32"><defs><style>.cls-1{fill:#fff;fill-rule:evenodd;}.cls-2{mask:url(#mask);}.cls-3{fill:#63a2b9;}</style><mask id="mask" x="0" y="0" width="32" height="32" maskUnits="userSpaceOnUse"><g id="mask-2"><path id="path-1" class="cls-1" d="M16,1A15,15,0,1,0,31,16,15,15,0,0,0,16,1Zm4,10.61H17.71c-.27,0-.57.37-.57.86v1.72H20l-.43,2.45H17.14V24H14.45V16.64H12V14.19h2.45V12.75A3.47,3.47,0,0,1,17.71,9H20v2.61Z"/></g></mask></defs><title>facebook</title><g id="Mask-2-2" data-name="Mask"><path d="M16,1A15,15,0,1,0,31,16,15,15,0,0,0,16,1Zm4,10.61H17.71c-.27,0-.57.37-.57.86v1.72H20l-.43,2.45H17.14V24H14.45V16.64H12V14.19h2.45V12.75A3.47,3.47,0,0,1,17.71,9H20v2.61Z"/></g><g class="cls-2"><rect class="cls-3" width="32" height="32"/></g></svg>