<svg id="Laag_1" data-name="Laag 1" xmlns="http://www.w3.org/2000/svg" xmlns:xlink="http://www.w3.org/1999/xlink" viewBox="0 0 32 32"><defs><style>.cls-1{fill:#fff;fill-rule:evenodd;}.cls-2{mask:url(#mask);}.cls-3{fill:#63a2b9;}</style><mask id="mask" x="0" y="0" width="32" height="32" maskUnits="userSpaceOnUse"><g id="mask-2"><path id="path-1" class="cls-1" d="M16,1A15,15,0,1,1,1,16,15,15,0,0,1,16,1Zm.37,11.59a3.78,3.78,0,1,0,3.78,3.78A3.78,3.78,0,0,0,16.37,12.59Zm0,6.24a2.46,2.46,0,1,1,2.46-2.46A2.46,2.46,0,0,1,16.37,18.83Zm3.93-7.28a.89.89,0,1,0,.89.89.89.89,0,0,0-.89-.89Zm3.44,4.82c0-1,0-2,0-3a4.36,4.36,0,0,0-1.19-3.09,4.36,4.36,0,0,0-3.09-1.19c-1-.06-2-.05-3-.05s-2,0-3,.05a4.36,4.36,0,0,0-3.09,1.19,4.36,4.36,0,0,0-1.19,3.09c-.06,1-.05,2-.05,3s0,2,.05,3a4.36,4.36,0,0,0,1.19,3.09,4.36,4.36,0,0,0,3.09,1.19c1,.06,2,0,3,0s2,0,3,0a4.08,4.08,0,0,0,4.28-4.28C23.75,18.4,23.74,17.39,23.74,16.37Zm-1.62,4.35a2.57,2.57,0,0,1-1.4,1.4,16.49,16.49,0,0,1-4.35.3,16.46,16.46,0,0,1-4.35-.3,2.29,2.29,0,0,1-.85-.56,2.23,2.23,0,0,1-.55-.84,16,16,0,0,1-.3-4.35,16.08,16.08,0,0,1,.3-4.35,2.23,2.23,0,0,1,.55-.84,2.29,2.29,0,0,1,.85-.56,16.46,16.46,0,0,1,4.35-.3,16.49,16.49,0,0,1,4.35.3,2.34,2.34,0,0,1,.84.56,2.48,2.48,0,0,1,.56.84,16.49,16.49,0,0,1,.3,4.35A16.46,16.46,0,0,1,22.12,20.72Z"/></g></mask></defs><title>instagram</title><g id="Mask-2-2" data-name="Mask"><path d="M16,1A15,15,0,1,1,1,16,15,15,0,0,1,16,1Zm.37,11.59a3.78,3.78,0,1,0,3.78,3.78A3.78,3.78,0,0,0,16.37,12.59Zm0,6.24a2.46,2.46,0,1,1,2.46-2.46A2.46,2.46,0,0,1,16.37,18.83Zm3.93-7.28a.89.89,0,1,0,.89.89.89.89,0,0,0-.89-.89Zm3.44,4.82c0-1,0-2,0-3a4.36,4.36,0,0,0-1.19-3.09,4.36,4.36,0,0,0-3.09-1.19c-1-.06-2-.05-3-.05s-2,0-3,.05a4.36,4.36,0,0,0-3.09,1.19,4.36,4.36,0,0,0-1.19,3.09c-.06,1-.05,2-.05,3s0,2,.05,3a4.36,4.36,0,0,0,1.19,3.09,4.36,4.36,0,0,0,3.09,1.19c1,.06,2,0,3,0s2,0,3,0a4.08,4.08,0,0,0,4.28-4.28C23.75,18.4,23.74,17.39,23.74,16.37Zm-1.62,4.35a2.57,2.57,0,0,1-1.4,1.4,16.49,16.49,0,0,1-4.35.3,16.46,16.46,0,0,1-4.35-.3,2.29,2.29,0,0,1-.85-.56,2.23,2.23,0,0,1-.55-.84,16,16,0,0,1-.3-4.35,16.08,16.08,0,0,1,.3-4.35,2.23,2.23,0,0,1,.55-.84,2.29,2.29,0,0,1,.85-.56,16.46,16.46,0,0,1,4.35-.3,16.49,16.49,0,0,1,4.35.3,2.34,2.34,0,0,1,.84.56,2.48,2.48,0,0,1,.56.84,16.49,16.49,0,0,1,.3,4.35A16.46,16.46,0,0,1,22.12,20.72Z"/></g><g class="cls-2"><rect class="cls-3" width="32" height="32"/></g></svg>