<svg id="Layer_1" data-name="Layer 1" xmlns="http://www.w3.org/2000/svg" viewBox="0 0 193.04 94"><defs><style>.cls-1{isolation:isolate;}.cls-2{fill:#ffb5a6;}.cls-3{fill:#ffd0c7;}.cls-4{fill:#ff775f;}</style></defs><title>logo</title><g id="Page-1"><g id="Stacked-Group-3-Copy"><g id="Group-6-Copy-3"><g id="Pure-Face-Art" class="cls-1"><g class="cls-1"><path d="M122.93,6.6q4.83,0,7.41,1.76a6.2,6.2,0,0,1,2.58,5.5,7.49,7.49,0,0,1-.69,3.34,5.79,5.79,0,0,1-2,2.27,9.27,9.27,0,0,1-3.2,1.3,20.18,20.18,0,0,1-4.32.42h-2V29h-4V7.14a20.13,20.13,0,0,1,3.12-.43Q121.49,6.6,122.93,6.6Zm0.29,3.49q-1.54,0-2.53.1v7.55h2a9.91,9.91,0,0,0,4.48-.82,3.15,3.15,0,0,0,1.57-3.09,3.67,3.67,0,0,0-.42-1.82,3,3,0,0,0-1.15-1.15,5.44,5.44,0,0,0-1.74-.59A12.67,12.67,0,0,0,123.22,10.09Z"/><path d="M144.62,29.48a10.47,10.47,0,0,1-3.9-.66A7.21,7.21,0,0,1,138,27a7.48,7.48,0,0,1-1.58-2.78,11.49,11.49,0,0,1-.51-3.52V6.82H140V20.3a8.69,8.69,0,0,0,.34,2.58,4.49,4.49,0,0,0,1,1.74,3.83,3.83,0,0,0,1.47,1,5.36,5.36,0,0,0,1.9.32,5.5,5.5,0,0,0,1.92-.32,3.81,3.81,0,0,0,1.49-1,4.5,4.5,0,0,0,1-1.74,8.66,8.66,0,0,0,.34-2.58V6.82h4.06V20.68a11.16,11.16,0,0,1-.53,3.52,7.68,7.68,0,0,1-1.6,2.78,7.17,7.17,0,0,1-2.74,1.84A10.73,10.73,0,0,1,144.62,29.48Z"/><path d="M164.18,6.6q4.8,0,7.34,1.76a6.09,6.09,0,0,1,2.54,5.38,6,6,0,0,1-4.45,6.11q0.61,0.74,1.38,1.79t1.57,2.29q0.8,1.23,1.54,2.53T175.41,29h-4.51q-0.61-1.15-1.31-2.32t-1.42-2.27q-0.72-1.1-1.42-2.08t-1.31-1.74l-0.77,0H162.1V29h-4V7.14a21.75,21.75,0,0,1,3.14-.43Q162.86,6.6,164.18,6.6Zm0.29,3.49q-1.28,0-2.37.1v7.17h1.76a18.59,18.59,0,0,0,2.59-.16,5.45,5.45,0,0,0,1.87-.58,2.8,2.8,0,0,0,1.14-1.12,3.72,3.72,0,0,0,.38-1.79,3.57,3.57,0,0,0-.38-1.73,2.86,2.86,0,0,0-1.1-1.12,5.25,5.25,0,0,0-1.71-.59A12.6,12.6,0,0,0,164.46,10.09Z"/><path d="M178,29V6.82h14.24v3.42H182.06v5.47h9.09v3.36h-9.09v6.5h11V29H178Z"/></g><g class="cls-1"><path d="M116.66,60V37.82h14v3.42h-10v5.66h8.86v3.42h-8.86V60h-4Z"/><path d="M146.9,60q-0.45-1.31-.93-2.59T145,54.78h-9.37q-0.45,1.34-.91,2.64T133.84,60h-4.19q1.25-3.55,2.37-6.56t2.19-5.7q1.07-2.69,2.13-5.12t2.18-4.8h3.85q1.12,2.37,2.18,4.8t2.13,5.12q1.07,2.69,2.21,5.7T151.25,60H146.9Zm-6.54-17.89q-0.74,1.7-1.68,4.13t-2,5.28H144q-1-2.85-2-5.31T140.35,42.11Z"/><path d="M162.83,60.48a12.34,12.34,0,0,1-4.48-.77A8.84,8.84,0,0,1,155,57.46a10.08,10.08,0,0,1-2.11-3.63,15.14,15.14,0,0,1-.74-4.93A13.31,13.31,0,0,1,153,44a10.65,10.65,0,0,1,2.32-3.63,9.74,9.74,0,0,1,3.46-2.26,11.69,11.69,0,0,1,4.26-.77,13.8,13.8,0,0,1,2.5.21,17.89,17.89,0,0,1,2,.46,8,8,0,0,1,1.38.54l0.77,0.42-1.18,3.3a9.38,9.38,0,0,0-2.19-.91,10.59,10.59,0,0,0-3.09-.43,7.22,7.22,0,0,0-2.69.5,5.83,5.83,0,0,0-2.16,1.49,6.91,6.91,0,0,0-1.42,2.5,10.81,10.81,0,0,0-.51,3.49,12.3,12.3,0,0,0,.4,3.23A7.15,7.15,0,0,0,158,54.64a5.59,5.59,0,0,0,2.11,1.66,7.26,7.26,0,0,0,3.07.59,11.65,11.65,0,0,0,3.49-.43,13.89,13.89,0,0,0,2.08-.82l1.09,3.3a5.57,5.57,0,0,1-1,.51,15,15,0,0,1-1.55.5,15.39,15.39,0,0,1-2,.38A18.92,18.92,0,0,1,162.83,60.48Z"/><path d="M172.88,60V37.82h14.24v3.42H176.91v5.47H186v3.36h-9.09v6.5h11V60h-15Z"/></g><g class="cls-1"><path d="M131.41,91q-0.45-1.31-.93-2.59t-0.93-2.62h-9.37q-0.45,1.34-.92,2.64T118.35,91h-4.19q1.25-3.55,2.37-6.56t2.19-5.7q1.07-2.69,2.13-5.12t2.17-4.8h3.85q1.12,2.37,2.18,4.8t2.13,5.12q1.07,2.69,2.21,5.7T135.76,91h-4.35Zm-6.54-17.89q-0.74,1.7-1.68,4.13t-2,5.28h7.3q-1-2.85-2-5.31T124.86,73.11Z"/><path d="M144.14,68.6q4.8,0,7.34,1.76a6.63,6.63,0,0,1-1.9,11.49q0.61,0.74,1.38,1.79t1.57,2.29q0.8,1.23,1.54,2.53T155.38,91h-4.51q-0.61-1.15-1.31-2.32t-1.42-2.27q-0.72-1.1-1.42-2.08t-1.31-1.74l-0.77,0h-2.56V91h-4V69.14a21.74,21.74,0,0,1,3.14-.43Q142.83,68.6,144.14,68.6Zm0.29,3.49q-1.28,0-2.37.1v7.17h1.76a18.6,18.6,0,0,0,2.59-.16,5.44,5.44,0,0,0,1.87-.58,2.8,2.8,0,0,0,1.14-1.12,3.72,3.72,0,0,0,.38-1.79,3.57,3.57,0,0,0-.38-1.73,2.86,2.86,0,0,0-1.1-1.12,5.24,5.24,0,0,0-1.71-.59A12.6,12.6,0,0,0,144.43,72.09Z"/><path d="M173.46,68.82v3.49h-6.82V91h-4.06V72.31h-6.82V68.82h17.7Z"/></g></g><g id="Group-14"><g id="Stacked-Group"><circle id="Oval" class="cls-2" cx="8" cy="86" r="8"/><circle id="Oval-Copy-2" class="cls-3" cx="34" cy="86" r="8"/><circle id="Oval-Copy-3" class="cls-4" cx="86" cy="86" r="8"/><circle id="Oval-Copy-4" class="cls-2" cx="60" cy="86" r="8"/></g><g id="Stacked-Group-Copy"><circle id="Oval-2" data-name="Oval" class="cls-3" cx="8" cy="60" r="8"/><circle id="Oval-Copy-2-2" data-name="Oval-Copy-2" class="cls-4" cx="34" cy="60" r="8"/><circle id="Oval-Copy-3-2" data-name="Oval-Copy-3" class="cls-2" cx="60" cy="60" r="8"/><circle id="Oval-Copy-4-2" data-name="Oval-Copy-4" class="cls-3" cx="86" cy="60" r="8"/></g><g id="Stacked-Group-Copy-2"><circle id="Oval-3" data-name="Oval" class="cls-3" cx="8" cy="34" r="8"/><circle id="Oval-Copy-2-3" data-name="Oval-Copy-2" class="cls-4" cx="34" cy="34" r="8"/><circle id="Oval-Copy-3-3" data-name="Oval-Copy-3" class="cls-3" cx="60" cy="34" r="8"/><circle id="Oval-Copy-4-3" data-name="Oval-Copy-4" class="cls-2" cx="86" cy="34" r="8"/></g><g id="Stacked-Group-Copy-3"><circle id="Oval-4" data-name="Oval" class="cls-4" cx="8" cy="8" r="8"/><circle id="Oval-Copy-2-4" data-name="Oval-Copy-2" class="cls-2" cx="34" cy="8" r="8"/><circle id="Oval-Copy-3-4" data-name="Oval-Copy-3" class="cls-3" cx="60" cy="8" r="8"/><circle id="Oval-Copy-4-4" data-name="Oval-Copy-4" class="cls-4" cx="86" cy="8" r="8"/></g></g></g></g></g></svg>