<svg id="Laag_1" data-name="Laag 1" xmlns="http://www.w3.org/2000/svg" xmlns:xlink="http://www.w3.org/1999/xlink" viewBox="0 0 32 32"><defs><style>.cls-1{fill:#fff;fill-rule:evenodd;}.cls-2{mask:url(#mask);}</style><mask id="mask" x="0" y="0" width="32" height="32" maskUnits="userSpaceOnUse"><g transform="translate(0)"><g id="mask-2"><path id="path-1" class="cls-1" d="M16,1A15,15,0,1,1,1,16,15,15,0,0,1,16,1Zm7.87,11.31-4.14,4.06a.07.07,0,0,0,0,.1l2.9,3a.48.48,0,0,1,0,.68.52.52,0,0,1-.71,0l-2.89-3a.08.08,0,0,0-.11,0l-.7.69a3.17,3.17,0,0,1-2.21.9,3.22,3.22,0,0,1-2.25-.92l-.68-.67a.08.08,0,0,0-.11,0l-2.89,3a.51.51,0,0,1-.7,0,.46.46,0,0,1,0-.68l2.89-3a.07.07,0,0,0,0-.1L8.13,12.31a.07.07,0,0,0-.13,0v8.12a1.21,1.21,0,0,0,1.23,1.19H22.77A1.21,1.21,0,0,0,24,20.48V12.36A.07.07,0,0,0,23.87,12.31ZM17.5,17.17l6-5.91a1.25,1.25,0,0,0-.76-.26H9.23a1.22,1.22,0,0,0-.76.26l6,5.91a2.13,2.13,0,0,0,1.5.61A2.09,2.09,0,0,0,17.5,17.17Z"/></g></g></mask></defs><title>mailb</title><g id="Mask-2-2" data-name="Mask"><path d="M16,1A15,15,0,1,1,1,16,15,15,0,0,1,16,1Zm7.87,11.31-4.14,4.06a.07.07,0,0,0,0,.1l2.9,3a.48.48,0,0,1,0,.68.52.52,0,0,1-.71,0l-2.89-3a.08.08,0,0,0-.11,0l-.7.69a3.17,3.17,0,0,1-2.21.9,3.22,3.22,0,0,1-2.25-.92l-.68-.67a.08.08,0,0,0-.11,0l-2.89,3a.51.51,0,0,1-.7,0,.46.46,0,0,1,0-.68l2.89-3a.07.07,0,0,0,0-.1L8.13,12.31a.07.07,0,0,0-.13,0v8.12a1.21,1.21,0,0,0,1.23,1.19H22.77A1.21,1.21,0,0,0,24,20.48V12.36A.07.07,0,0,0,23.87,12.31ZM17.5,17.17l6-5.91a1.25,1.25,0,0,0-.76-.26H9.23a1.22,1.22,0,0,0-.76.26l6,5.91a2.13,2.13,0,0,0,1.5.61A2.09,2.09,0,0,0,17.5,17.17Z" transform="translate(0)"/></g><g class="cls-2"><rect width="32" height="32"/></g></svg>