<svg id="Laag_1" data-name="Laag 1" xmlns="http://www.w3.org/2000/svg" xmlns:xlink="http://www.w3.org/1999/xlink" viewBox="0 0 32 32"><defs><style>.cls-1{fill:#fff;fill-rule:evenodd;}.cls-2{mask:url(#mask);}.cls-3{fill:#63a2b9;}</style><mask id="mask" x="0" y="0" width="32" height="32" maskUnits="userSpaceOnUse"><g id="mask-2"><path id="path-1" class="cls-1" d="M16,1A15,15,0,1,1,1,16,15,15,0,0,1,16,1Zm7.57,19.75A12.77,12.77,0,0,0,20.94,19c-.79-.37-1.08-.37-1.64,0s-.77.64-1.3.53a7.81,7.81,0,0,1-2.61-1.94A7.67,7.67,0,0,1,13.45,15c-.11-.54.2-.83.53-1.3s.42-.85,0-1.64a12.77,12.77,0,0,0-1.77-2.63c-.57-.57-.7-.45-1-.33a5.49,5.49,0,0,0-.94.49,2.86,2.86,0,0,0-1.12,1.19c-.22.48-.48,1.37.83,3.71a21,21,0,0,0,3.64,4.85h0A21,21,0,0,0,18.51,23c2.34,1.31,3.23,1.05,3.71.83a2.74,2.74,0,0,0,1.19-1.12,5.49,5.49,0,0,0,.49-.94C24,21.45,24.15,21.32,23.57,20.75Z"/></g></mask></defs><title>phone</title><g id="Mask-2-2" data-name="Mask"><path d="M16,1A15,15,0,1,1,1,16,15,15,0,0,1,16,1Zm7.57,19.75A12.77,12.77,0,0,0,20.94,19c-.79-.37-1.08-.37-1.64,0s-.77.64-1.3.53a7.81,7.81,0,0,1-2.61-1.94A7.67,7.67,0,0,1,13.45,15c-.11-.54.2-.83.53-1.3s.42-.85,0-1.64a12.77,12.77,0,0,0-1.77-2.63c-.57-.57-.7-.45-1-.33a5.49,5.49,0,0,0-.94.49,2.86,2.86,0,0,0-1.12,1.19c-.22.48-.48,1.37.83,3.71a21,21,0,0,0,3.64,4.85h0A21,21,0,0,0,18.51,23c2.34,1.31,3.23,1.05,3.71.83a2.74,2.74,0,0,0,1.19-1.12,5.49,5.49,0,0,0,.49-.94C24,21.45,24.15,21.32,23.57,20.75Z"/></g><g class="cls-2"><rect class="cls-3" width="32" height="32"/></g></svg>