<svg id="Laag_1" data-name="Laag 1" xmlns="http://www.w3.org/2000/svg" viewBox="0 0 20 23.51"><defs><style>.cls-1{fill:#fff;}</style></defs><title>pijl</title><g id="Page-1"><g id="Blog-Copy"><g id="Blog"><g id="share"><path id="Path" class="cls-1" d="M20.09,8.36,14.38.83a.64.64,0,0,0-.5-.28.65.65,0,0,0-.51.28,1.08,1.08,0,0,0-.21.66V5.26h-2.5Q2.71,5.26.9,11.18a17,17,0,0,0-.6,4.89A22.3,22.3,0,0,0,1.72,22.7c0,.07.06.19.12.35a4.44,4.44,0,0,0,.15.44,1.72,1.72,0,0,0,.14.33c.09.16.2.25.32.25a.29.29,0,0,0,.26-.15.7.7,0,0,0,.09-.37,3.13,3.13,0,0,0,0-.39c0-.17,0-.28,0-.34,0-.67-.06-1.27-.06-1.81a16.29,16.29,0,0,1,.2-2.66,10,10,0,0,1,.54-2,5.21,5.21,0,0,1,2.07-2.5A5.41,5.41,0,0,1,7,13.18a11.51,11.51,0,0,1,1.72-.31,19.16,19.16,0,0,1,2-.09h2.5v3.76a1,1,0,0,0,.21.66.6.6,0,0,0,1,0l5.71-7.52A1.08,1.08,0,0,0,20.3,9,1,1,0,0,0,20.09,8.36Z" transform="translate(-0.3 -0.55)"/></g></g></g></g></svg>