<svg id="Laag_1" data-name="Laag 1" xmlns="http://www.w3.org/2000/svg" viewBox="0 0 30.72 30.72"><defs><style>.cls-1{fill:#63a2b9;}</style></defs><title>pinterest</title><path id="Icon-Shape" class="cls-1" d="M15.36,0A15.36,15.36,0,1,0,30.72,15.36,15.36,15.36,0,0,0,15.36,0Zm1,20c-.94-.07-1.33-.56-2.07-1-.4,2.2-.9,4.32-2.36,5.42-.45-3.33.66-5.83,1.18-8.48-.88-1.55.11-4.65,2-3.89,2.29.94-2,5.74.89,6.34s4.22-5.4,2.36-7.36c-2.69-2.83-7.82-.06-7.19,4,.15,1,1.14,1.29.39,2.65-1.72-.39-2.23-1.8-2.16-3.68a5.9,5.9,0,0,1,5.22-5.52c3.24-.37,6.28,1.24,6.7,4.4C21.76,16.38,19.83,20.24,16.36,20Z" transform="translate(0 0)"/></svg>