<svg id="Laag_1" data-name="Laag 1" xmlns="http://www.w3.org/2000/svg" xmlns:xlink="http://www.w3.org/1999/xlink" viewBox="0 0 20 24"><defs><style>.cls-1,.cls-2{fill:#fff;}.cls-1{fill-rule:evenodd;}.cls-3{mask:url(#mask);}</style><mask id="mask" x="0" y="0" width="20" height="24" maskUnits="userSpaceOnUse"><g id="mask-2"><path id="path-1" class="cls-1" d="M19.79,7.8,14.07.28a.59.59,0,0,0-1,0,1.08,1.08,0,0,0-.21.66V4.7h-2.5q-8,0-9.77,5.93A17.38,17.38,0,0,0,0,15.52a22,22,0,0,0,1.42,6.63c0,.07.06.18.11.35l.16.44a1.39,1.39,0,0,0,.14.32c.09.17.19.25.31.25a.31.31,0,0,0,.27-.14A.7.7,0,0,0,2.5,23a3.61,3.61,0,0,0,0-.39c0-.17,0-.29,0-.34,0-.67,0-1.27,0-1.81a16.37,16.37,0,0,1,.19-2.66,9.86,9.86,0,0,1,.54-2A5.18,5.18,0,0,1,4,14.28a4.89,4.89,0,0,1,1.18-1,5.12,5.12,0,0,1,1.48-.63,11.29,11.29,0,0,1,1.72-.31,19.16,19.16,0,0,1,2-.09h2.5V16a1,1,0,0,0,.21.66.59.59,0,0,0,1,0l5.72-7.52a1.16,1.16,0,0,0,0-1.33Z"/></g></mask></defs><title>share</title><g id="Mask-2-2" data-name="Mask"><path class="cls-2" d="M19.79,7.8,14.07.28a.59.59,0,0,0-1,0,1.08,1.08,0,0,0-.21.66V4.7h-2.5q-8,0-9.77,5.93A17.38,17.38,0,0,0,0,15.52a22,22,0,0,0,1.42,6.63c0,.07.06.18.11.35l.16.44a1.39,1.39,0,0,0,.14.32c.09.17.19.25.31.25a.31.31,0,0,0,.27-.14A.7.7,0,0,0,2.5,23a3.61,3.61,0,0,0,0-.39c0-.17,0-.29,0-.34,0-.67,0-1.27,0-1.81a16.37,16.37,0,0,1,.19-2.66,9.86,9.86,0,0,1,.54-2A5.18,5.18,0,0,1,4,14.28a4.89,4.89,0,0,1,1.18-1,5.12,5.12,0,0,1,1.48-.63,11.29,11.29,0,0,1,1.72-.31,19.16,19.16,0,0,1,2-.09h2.5V16a1,1,0,0,0,.21.66.59.59,0,0,0,1,0l5.72-7.52a1.16,1.16,0,0,0,0-1.33Z"/></g><g class="cls-3"><rect class="cls-2" width="20" height="24"/></g></svg>